<?xml version="1.0" standalone="no"?>
<!DOCTYPE svg PUBLIC "-//W3C//DTD SVG 20010904//EN"
 "http://www.w3.org/TR/2001/REC-SVG-20010904/DTD/svg10.dtd">
<svg version="1.0" xmlns="http://www.w3.org/2000/svg"
 width="1024.000000pt" height="1024.000000pt" viewBox="0 0 1024.000000 1024.000000"
 preserveAspectRatio="xMidYMid meet">

<g transform="translate(0.000000,1024.000000) scale(0.100000,-0.100000)"
fill="#000000" stroke="none">
<path d="M4815 10230 c-1024 -67 -1961 -412 -2770 -1019 -272 -204 -640 -553
-845 -801 -369 -445 -634 -891 -840 -1409 -585 -1474 -444 -3169 377 -4524
524 -865 1304 -1567 2211 -1991 557 -260 1103 -405 1757 -467 168 -16 661 -16
835 0 1265 117 2371 638 3240 1527 546 559 936 1193 1186 1929 363 1065 363
2225 0 3290 -207 609 -500 1131 -925 1645 -122 147 -482 508 -631 631 -819
679 -1761 1073 -2805 1174 -193 19 -611 27 -790 15z m-1627 -4133 c402 -629
758 -1188 792 -1243 49 -77 60 -91 55 -64 -4 19 -10 578 -12 1243 l-4 1207
169 0 169 0 6 -922 c4 -508 7 -1165 7 -1460 l0 -538 -214 0 -214 0 -766 1188
c-421 653 -779 1218 -797 1255 -17 37 -33 67 -34 65 -2 -2 1 -50 5 -108 5 -58
9 -621 10 -1252 l0 -1148 -175 0 -175 0 0 1460 0 1460 224 0 224 0 730 -1143z
m3412 988 l0 -155 -565 0 -565 0 0 -485 0 -485 525 0 525 0 0 -155 0 -155
-525 0 -525 0 0 -505 0 -505 600 0 600 0 0 -160 0 -160 -775 0 -775 0 0 1460
0 1460 740 0 740 0 0 -155z m2360 0 l0 -155 -422 -2 -423 -3 -3 -1302 -2
-1303 -170 0 -170 0 0 1305 0 1305 -420 0 -420 0 0 155 0 155 1015 0 1015 0 0
-155z m-7673 -2374 c78 -39 123 -115 123 -203 -1 -173 -178 -280 -331 -200
-107 55 -151 190 -98 299 24 49 80 101 130 120 45 17 127 10 176 -16z m2826
-1100 l67 -22 0 -80 c0 -73 -2 -80 -17 -74 -115 49 -152 58 -264 63 -90 3
-129 1 -175 -13 -92 -26 -170 -73 -229 -137 -159 -172 -199 -464 -94 -684 36
-77 112 -163 177 -201 140 -82 363 -86 537 -8 32 14 59 25 61 25 2 0 4 -33 4
-74 l0 -75 -57 -21 c-114 -42 -179 -52 -333 -48 -160 4 -213 18 -319 80 -366
218 -403 830 -68 1133 66 61 187 125 277 150 86 23 344 15 433 -14z m898 -361
c146 -49 242 -157 284 -315 20 -77 20 -243 0 -320 -36 -137 -135 -258 -262
-318 -66 -31 -72 -32 -198 -32 -125 0 -132 1 -197 32 -118 56 -210 160 -250
286 -28 84 -30 256 -4 342 42 140 118 235 235 294 80 41 117 49 234 50 74 1
112 -4 158 -19z m1743 -10 c101 -38 183 -134 221 -260 9 -30 19 -101 22 -157
l6 -103 -343 0 -343 0 6 -57 c9 -87 60 -180 121 -220 65 -44 116 -56 206 -50
87 6 155 27 223 68 26 16 50 29 53 29 2 0 4 -32 2 -72 l-3 -72 -55 -28 c-90
-46 -169 -61 -294 -56 -95 3 -120 8 -169 31 -115 53 -176 123 -224 255 -31 84
-40 218 -23 320 23 140 121 287 229 346 106 57 252 68 365 26z m-725 14 l31
-6 0 -80 c0 -79 0 -80 -22 -73 -13 4 -48 10 -79 12 -95 8 -155 -34 -206 -142
l-28 -60 -3 -312 -3 -313 -85 0 -84 0 0 480 0 480 85 0 85 0 0 -87 c1 -83 2
-86 14 -57 8 18 31 51 52 74 67 74 149 102 243 84z"/>
<path d="M4733 3113 c-64 -22 -135 -92 -169 -165 -27 -59 -29 -71 -29 -193 0
-123 2 -133 29 -188 33 -68 79 -118 139 -149 36 -20 57 -23 142 -23 84 0 107
4 140 22 57 30 99 78 132 148 26 56 28 68 28 190 0 113 -3 138 -24 189 -31 77
-99 147 -166 169 -59 21 -165 21 -222 0z"/>
<path d="M6535 3121 c-100 -26 -186 -123 -210 -238 l-7 -33 256 0 256 0 0 40
c0 82 -54 176 -122 211 -45 23 -127 32 -173 20z"/>
</g>
</svg>
